<?xml version="1.0" encoding="utf-8"?>
<!-- Generator: Adobe Illustrator 19.0.0, SVG Export Plug-In . SVG Version: 6.00 Build 0)  -->
<svg version="1.1" id="Layer_1" xmlns="http://www.w3.org/2000/svg" xmlns:xlink="http://www.w3.org/1999/xlink" x="0px" y="0px"
	 viewBox="0 0 96 96" style="enable-background:new 0 0 96 96;" xml:space="preserve">
<style type="text/css">
	.st0{fill:#333333;}
</style>
<g id="XMLID_1_">
	<polygon id="XMLID_3_" class="st0" points="22.4,29.2 22.4,31.1 71.7,31.1 71.7,64.9 24.3,64.9 24.3,29.2 22.4,29.2 22.4,31.1 
		22.4,29.2 20.5,29.2 20.5,68.7 75.5,68.7 75.5,27.3 20.5,27.3 20.5,29.2 	"/>
	<path id="XMLID_4_" class="st0" d="M21.5,31l22.1,22.4l0,0c0.6,0.6,1.3,1.1,2.1,1.4c0.8,0.3,1.6,0.4,2.4,0.4c0.8,0,1.6-0.1,2.4-0.4
		c0.8-0.3,1.5-0.7,2.1-1.4l0,0l22.1-22.2l-2.7-2.7L49.8,50.7l0,0c-0.2,0.2-0.4,0.4-0.7,0.5c-0.3,0.1-0.6,0.2-1,0.2
		c-0.3,0-0.7-0.1-1-0.2c-0.3-0.1-0.6-0.3-0.8-0.5l0,0L24.3,28.3L21.5,31L21.5,31z"/>
	<polyline id="XMLID_5_" class="st0" points="25,66.9 41.9,49.6 39.2,47 22.3,64.2 	"/>
	<polyline id="XMLID_6_" class="st0" points="73.5,64 57.1,47.2 54.3,49.9 70.8,66.7 	"/>
</g>
</svg>
